<?xml version="1.0" encoding="utf-8"?>
<!-- Generator: Adobe Illustrator 16.0.0, SVG Export Plug-In . SVG Version: 6.00 Build 0)  -->
<!DOCTYPE svg PUBLIC "-//W3C//DTD SVG 1.1//EN" "http://www.w3.org/Graphics/SVG/1.1/DTD/svg11.dtd">
<svg version="1.1" id="Layer_1" xmlns="http://www.w3.org/2000/svg" xmlns:xlink="http://www.w3.org/1999/xlink" x="0px" y="0px"
	 width="21px" height="21px" viewBox="0 0 21 21" enable-background="new 0 0 21 21" xml:space="preserve">
<g>
	<g>
		<path fill="#0BC0F1" d="M18.539,1.641h-0.984V0h-1.641v1.641H5.086V0H3.445v1.641H2.461C1.104,1.641,0,2.745,0,4.102v14.438
			C0,19.896,1.104,21,2.461,21h16.078C19.896,21,21,19.896,21,18.539V4.102C21,2.745,19.896,1.641,18.539,1.641z M19.359,18.539
			c0,0.452-0.368,0.82-0.82,0.82H2.461c-0.452,0-0.82-0.368-0.82-0.82V7.711h17.719V18.539z M19.359,6.07H1.641V4.102
			c0-0.452,0.368-0.82,0.82-0.82h0.984v1.641h1.641V3.281h10.828v1.641h1.641V3.281h0.984c0.452,0,0.82,0.368,0.82,0.82V6.07z"/>
	</g>
</g>
<g>
	<g>
		<rect x="3.243" y="9.434" fill="#0BC0F1" width="3.5" height="1.641"/>
	</g>
</g>
<g>
	<g>
		<rect x="8.746" y="9.434" fill="#0BC0F1" width="3.5" height="1.641"/>
	</g>
</g>
<g>
	<g>
		<rect x="14.249" y="9.434" fill="#0BC0F1" width="3.5" height="1.641"/>
	</g>
</g>
<g>
	<g>
		<rect x="3.243" y="12.715" fill="#0BC0F1" width="3.5" height="1.641"/>
	</g>
</g>
<g>
	<g>
		<rect x="8.746" y="12.715" fill="#0BC0F1" width="3.5" height="1.641"/>
	</g>
</g>
<g>
	<g>
		<rect x="14.249" y="12.715" fill="#0BC0F1" width="3.5" height="1.641"/>
	</g>
</g>
<g>
	<g>
		<rect x="3.243" y="15.996" fill="#0BC0F1" width="3.5" height="1.641"/>
	</g>
</g>
<g>
	<g>
		<rect x="8.746" y="15.996" fill="#0BC0F1" width="3.5" height="1.641"/>
	</g>
</g>
<g>
	<g>
		<rect x="14.249" y="15.996" fill="#0BC0F1" width="3.5" height="1.641"/>
	</g>
</g>
</svg>
