<?xml version="1.0" encoding="utf-8"?>
<!-- Generator: Adobe Illustrator 16.0.0, SVG Export Plug-In . SVG Version: 6.00 Build 0)  -->
<!DOCTYPE svg PUBLIC "-//W3C//DTD SVG 1.1//EN" "http://www.w3.org/Graphics/SVG/1.1/DTD/svg11.dtd">
<svg version="1.1" id="Layer_1" xmlns="http://www.w3.org/2000/svg" xmlns:xlink="http://www.w3.org/1999/xlink" x="0px" y="0px"
	 width="32px" height="21px" viewBox="0 0 32 21" enable-background="new 0 0 32 21" xml:space="preserve">
<g>
	
		<path fill="#0BC0F1" stroke="#0BC0F1" stroke-width="0.3" stroke-linecap="round" stroke-linejoin="round" stroke-miterlimit="10" d="
		M16.517,5.602c1.074,0.262,2.099,0.677,3.054,1.224l1.45-4.894c-1.429-0.548-2.946-0.868-4.524-0.923L16.517,5.602z"/>
	
		<path fill="#0BC0F1" stroke="#0BC0F1" stroke-width="0.3" stroke-linecap="round" stroke-linejoin="round" stroke-miterlimit="10" d="
		M20.173,7.194c0.883,0.574,1.698,1.265,2.434,2.054l3.037-4.485c-1.203-1.064-2.545-1.935-3.988-2.569L20.173,7.194z"/>
	
		<path fill="#0BC0F1" stroke="#0BC0F1" stroke-width="0.3" stroke-linecap="round" stroke-linejoin="round" stroke-miterlimit="10" d="
		M12.364,5.38c0.485-0.063,0.978-0.1,1.478-0.1c0.681,0,1.349,0.062,2,0.178L15.821,1c-1.583,0.02-3.111,0.305-4.55,0.821
		L12.364,5.38z"/>
	
		<path fill="#0BC0F1" stroke="#0BC0F1" stroke-width="0.3" stroke-linecap="round" stroke-linejoin="round" stroke-miterlimit="10" d="
		M4.405,10.019c0.9-1.12,1.954-2.077,3.12-2.834l-1.481-2.14C4.846,6.161,3.795,7.473,2.93,8.939L4.405,10.019z"/>
	
		<path fill="#0BC0F1" stroke="#0BC0F1" stroke-width="0.3" stroke-linecap="round" stroke-linejoin="round" stroke-miterlimit="10" d="
		M24.741,12.226l4.294-3.345c-0.808-1.356-1.774-2.577-2.868-3.634L23.09,9.795C23.71,10.535,24.267,11.348,24.741,12.226z"/>
	
		<path fill="#0BC0F1" stroke="#0BC0F1" stroke-width="0.3" stroke-linecap="round" stroke-linejoin="round" stroke-miterlimit="10" d="
		M0.675,14.833C0.4,16.161,0.25,17.547,0.25,18.973c0,0.246,0.008,0.489,0.017,0.733H1.04c0.018-1.594,0.263-3.126,0.694-4.559
		L0.675,14.833z"/>
	
		<path fill="#0BC0F1" stroke="#0BC0F1" stroke-width="0.3" stroke-linecap="round" stroke-linejoin="round" stroke-miterlimit="10" d="
		M26.274,16.413c0.228,1.057,0.356,2.158,0.37,3.293h5.09c0.008-0.244,0.016-0.487,0.016-0.733c0-1.461-0.157-2.88-0.445-4.24
		L26.274,16.413z"/>
	
		<path fill="#0BC0F1" stroke="#0BC0F1" stroke-width="0.3" stroke-linecap="round" stroke-linejoin="round" stroke-miterlimit="10" d="
		M8.542,7.758c1.103-0.63,2.297-1.082,3.553-1.326l-1.812-5.423c-1.466,0.606-2.832,1.454-4.058,2.5L8.542,7.758z"/>
	
		<path fill="#0BC0F1" stroke="#0BC0F1" stroke-width="0.3" stroke-linecap="round" stroke-linejoin="round" stroke-miterlimit="10" d="
		M29.401,9.528l-4.32,3.365c0.418,0.875,0.76,1.805,1.017,2.775l5.034-1.681C30.73,12.4,30.146,10.902,29.401,9.528z"/>
	
		<path fill="#0BC0F1" stroke="#0BC0F1" stroke-width="0.3" stroke-linecap="round" stroke-linejoin="round" stroke-miterlimit="10" d="
		M1.971,14.423c0.493-1.391,1.165-2.676,1.988-3.815l-1.394-1.02c-0.744,1.385-1.326,2.897-1.721,4.498L1.971,14.423z"/>
	<path fill="#0BC0F1" d="M14.725,18.338l0.005-0.002l-0.016-0.04c-0.019-0.06-0.043-0.116-0.069-0.171L10.381,7.566l2.194,11.341
		c0.007,0.063,0.019,0.124,0.035,0.186l0.011,0.054l0.003-0.002C12.776,19.642,13.185,20,13.671,20c0.615,0,1.113-0.568,1.113-1.27
		C14.784,18.593,14.76,18.462,14.725,18.338z M13.711,19.501c-0.363,0-0.656-0.336-0.656-0.749c0-0.414,0.293-0.749,0.656-0.749
		c0.362,0,0.656,0.335,0.656,0.749C14.367,19.165,14.073,19.501,13.711,19.501z"/>
</g>
<g>
	<path fill="#0BC0F1" d="M-25.128-1.031c-5.334,0-9.675,4.34-9.675,9.674c0,5.335,4.341,9.675,9.675,9.675
		c5.336,0,9.676-4.34,9.676-9.675C-15.454,3.31-19.792-1.031-25.128-1.031z M-17.325,12.623l-1.317-0.763
		c-0.219-0.127-0.498-0.053-0.626,0.168c-0.126,0.218-0.052,0.497,0.17,0.623l1.314,0.763c-0.668,1.026-1.549,1.907-2.575,2.573
		l-0.761-1.315c-0.127-0.22-0.406-0.293-0.625-0.168c-0.221,0.127-0.293,0.405-0.166,0.627l0.761,1.316
		c-1.066,0.547-2.259,0.879-3.521,0.946v-1.525c0-0.252-0.205-0.456-0.457-0.456s-0.457,0.204-0.457,0.456v1.525
		c-1.262-0.067-2.455-0.399-3.521-0.946l0.761-1.316c0.127-0.222,0.051-0.5-0.167-0.627c-0.218-0.125-0.497-0.052-0.624,0.168
		l-0.761,1.315c-1.027-0.666-1.906-1.547-2.576-2.573l1.317-0.763c0.218-0.126,0.293-0.405,0.167-0.623
		c-0.125-0.221-0.405-0.295-0.625-0.168l-1.318,0.763c-0.545-1.066-0.879-2.26-0.944-3.521h1.523c0.252,0,0.457-0.205,0.457-0.457
		s-0.205-0.458-0.457-0.458h-1.523c0.065-1.261,0.398-2.453,0.944-3.52l1.318,0.761c0.073,0.042,0.151,0.062,0.229,0.062
		c0.158,0,0.312-0.083,0.397-0.229c0.126-0.219,0.051-0.499-0.17-0.624l-1.315-0.761c0.67-1.027,1.549-1.906,2.576-2.576
		l0.761,1.317c0.084,0.146,0.238,0.229,0.396,0.229c0.078,0,0.156-0.02,0.228-0.061c0.22-0.126,0.293-0.406,0.167-0.625l-0.76-1.32
		c1.064-0.545,2.259-0.879,3.52-0.943v1.523c0,0.252,0.207,0.457,0.457,0.457c0.252,0,0.457-0.205,0.457-0.457v-1.522
		c1.262,0.064,2.455,0.398,3.521,0.943l-0.762,1.319c-0.127,0.219-0.053,0.498,0.168,0.625c0.072,0.041,0.149,0.061,0.229,0.061
		c0.157,0,0.311-0.082,0.395-0.229l0.762-1.316c1.027,0.67,1.908,1.549,2.574,2.576l-1.314,0.761
		c-0.221,0.125-0.295,0.405-0.169,0.624c0.085,0.146,0.238,0.228,0.397,0.228c0.076,0,0.156-0.019,0.229-0.061l1.318-0.761
		c0.546,1.066,0.878,2.258,0.945,3.52h-1.525c-0.252,0-0.456,0.206-0.456,0.458c0,0.251,0.204,0.457,0.456,0.457h1.525
		C-16.446,10.363-16.778,11.556-17.325,12.623z"/>
</g>
</svg>
